<?xml version="1.0" encoding="UTF-8" standalone="no"?><!DOCTYPE svg PUBLIC "-//W3C//DTD SVG 1.1//EN" "http://www.w3.org/Graphics/SVG/1.1/DTD/svg11.dtd"><svg width="100%" height="100%" viewBox="0 0 9000 9000" version="1.1" xmlns="http://www.w3.org/2000/svg" xmlns:xlink="http://www.w3.org/1999/xlink" xml:space="preserve" xmlns:serif="http://www.serif.com/" style="fill-rule:evenodd;clip-rule:evenodd;stroke-linejoin:round;stroke-miterlimit:2;"><rect id="Avatar--solid-" serif:id="Avatar (solid)" x="0" y="0" width="9000" height="9000" style="fill:none;"/><clipPath id="_clip1"><rect x="0" y="0" width="9000" height="9000"/></clipPath><g clip-path="url(#_clip1)"><clipPath id="_clip2"><path d="M8160.39,8237.56c8.235,9.351 15.186,19.76 20.668,30.95c67.452,138.36 69.498,302.155 0.845,444.314c-15.798,32.712 -34.821,63.205 -56.579,91.171c-103.169,133.134 -281.883,182.105 -438.507,120.157c-651.024,-248.414 -1509.2,-469.469 -2076.32,-785.794c-1102.67,-615.035 -1861.97,-1202.31 -1335.2,-2831.13c9.57,-29.618 36.185,-50.443 67.236,-52.61c661.257,-50.209 1248.86,-509.81 1430.24,-1186.74c58.903,-219.829 114.336,-426.708 158.479,-591.455c25.948,-96.837 12.364,-200.014 -37.762,-286.835c-50.127,-86.821 -132.689,-150.174 -229.526,-176.121l-154.782,-41.473l321.697,-1200.59c18.473,-68.944 8.802,-142.402 -26.885,-204.215c-35.688,-61.814 -94.47,-106.918 -163.413,-125.391c-68.944,-18.474 -142.403,-8.803 -204.216,26.885c-61.813,35.688 -106.917,94.469 -125.391,163.413l-321.697,1200.59l-1024.8,-274.596l321.697,-1200.59c18.473,-68.944 8.802,-142.402 -26.886,-204.216c-35.687,-61.813 -94.469,-106.917 -163.413,-125.391c-0.049,-0.013 -0.099,-0.026 -0.148,-0.04c-68.905,-18.462 -142.321,-8.797 -204.099,26.871c-61.778,35.667 -106.857,94.415 -125.319,163.32l-321.737,1200.74l-154.782,-41.474c-96.837,-25.947 -200.014,-12.364 -286.835,37.763c-86.821,50.126 -150.174,132.688 -176.121,229.524c-44.144,164.748 -99.577,371.626 -158.48,591.455c-175.177,653.772 79.142,1321.44 589.99,1703.42c26.507,19.551 37.442,53.926 27.103,85.198c-623.881,1889 143.098,2818.08 870.147,3399.12c151.532,121.1 317.318,235.249 490.931,341.145c48.425,29.686 71.218,87.941 55.796,142.608c-15.422,54.666 -65.301,92.42 -122.101,92.42c-1038.99,0.283 -3368.43,0.283 -3368.43,0.283c-280.892,0 -508.6,-227.707 -508.6,-508.599c-0,-1581.45 -0,-6401.08 -0,-7983.05c0,-134.955 53.637,-264.377 149.1,-359.769c95.463,-95.392 224.925,-148.932 359.88,-148.831c1321.65,0.988 4760.47,3.56 4760.47,3.56c599.102,-0.001 1173.67,237.992 1597.3,661.622c423.63,423.629 661.622,998.194 661.622,1597.3c-0,531.596 -0,1098.24 -0,1629.84c0,599.102 -237.992,1173.67 -661.622,1597.3c-0,0 -0,0 -0,0c-546.892,546.891 -574.755,1424.6 -63.652,2005.07c333.628,378.913 597.531,678.636 654.096,742.879Z" clip-rule="nonzero"/></clipPath><g clip-path="url(#_clip2)"><rect x="16.586" y="-0.38" width="9000.63" height="9000.63" style="fill:#7289da;"/></g></g></svg>